<svg id="mermaid-svg" width="100%" xmlns="http://www.w3.org/2000/svg" style="max-width: 203.361328125px;" viewBox="0 0 203.361328125 598" role="graphics-document document" aria-roledescription="er" xmlns:xlink="http://www.w3.org/1999/xlink"><style xmlns="http://www.w3.org/1999/xhtml">@import url("https://cdnjs.cloudflare.com/ajax/libs/font-awesome/6.6.0/css/all.min.css");</style><style>#mermaid-svg{font-family:"trebuchet ms",verdana,arial,sans-serif;font-size:16px;fill:#333;}#mermaid-svg .error-icon{fill:#552222;}#mermaid-svg .error-text{fill:#552222;stroke:#552222;}#mermaid-svg .edge-thickness-normal{stroke-width:1px;}#mermaid-svg .edge-thickness-thick{stroke-width:3.5px;}#mermaid-svg .edge-pattern-solid{stroke-dasharray:0;}#mermaid-svg .edge-thickness-invisible{stroke-width:0;fill:none;}#mermaid-svg .edge-pattern-dashed{stroke-dasharray:3;}#mermaid-svg .edge-pattern-dotted{stroke-dasharray:2;}#mermaid-svg .marker{fill:#333333;stroke:#333333;}#mermaid-svg .marker.cross{stroke:#333333;}#mermaid-svg svg{font-family:"trebuchet ms",verdana,arial,sans-serif;font-size:16px;}#mermaid-svg p{margin:0;}#mermaid-svg .entityBox{fill:#ECECFF;stroke:#9370DB;}#mermaid-svg .attributeBoxOdd{fill:#ffffff;stroke:#9370DB;}#mermaid-svg .attributeBoxEven{fill:#f2f2f2;stroke:#9370DB;}#mermaid-svg .relationshipLabelBox{fill:hsl(80, 100%, 96.2745098039%);opacity:0.7;background-color:hsl(80, 100%, 96.2745098039%);}#mermaid-svg .relationshipLabelBox rect{opacity:0.5;}#mermaid-svg .relationshipLine{stroke:#333333;}#mermaid-svg .entityTitleText{text-anchor:middle;font-size:18px;fill:#333;}#mermaid-svg #MD_PARENT_START{fill:#f5f5f5!important;stroke:#333333!important;stroke-width:1;}#mermaid-svg #MD_PARENT_END{fill:#f5f5f5!important;stroke:#333333!important;stroke-width:1;}#mermaid-svg :root{--mermaid-font-family:"trebuchet ms",verdana,arial,sans-serif;}</style><g/><defs><marker id="MD_PARENT_START" refX="0" refY="7" markerWidth="190" markerHeight="240" orient="auto"><path d="M 18,7 L9,13 L1,7 L9,1 Z"/></marker></defs><defs><marker id="MD_PARENT_END" refX="19" refY="7" markerWidth="20" markerHeight="28" orient="auto"><path d="M 18,7 L9,13 L1,7 L9,1 Z"/></marker></defs><defs><marker id="ONLY_ONE_START" refX="0" refY="9" markerWidth="18" markerHeight="18" orient="auto"><path stroke="gray" fill="none" d="M9,0 L9,18 M15,0 L15,18"/></marker></defs><defs><marker id="ONLY_ONE_END" refX="18" refY="9" markerWidth="18" markerHeight="18" orient="auto"><path stroke="gray" fill="none" d="M3,0 L3,18 M9,0 L9,18"/></marker></defs><defs><marker id="ZERO_OR_ONE_START" refX="0" refY="9" markerWidth="30" markerHeight="18" orient="auto"><circle stroke="gray" fill="white" cx="21" cy="9" r="6"/><path stroke="gray" fill="none" d="M9,0 L9,18"/></marker></defs><defs><marker id="ZERO_OR_ONE_END" refX="30" refY="9" markerWidth="30" markerHeight="18" orient="auto"><circle stroke="gray" fill="white" cx="9" cy="9" r="6"/><path stroke="gray" fill="none" d="M21,0 L21,18"/></marker></defs><defs><marker id="ONE_OR_MORE_START" refX="18" refY="18" markerWidth="45" markerHeight="36" orient="auto"><path stroke="gray" fill="none" d="M0,18 Q 18,0 36,18 Q 18,36 0,18 M42,9 L42,27"/></marker></defs><defs><marker id="ONE_OR_MORE_END" refX="27" refY="18" markerWidth="45" markerHeight="36" orient="auto"><path stroke="gray" fill="none" d="M3,9 L3,27 M9,18 Q27,0 45,18 Q27,36 9,18"/></marker></defs><defs><marker id="ZERO_OR_MORE_START" refX="18" refY="18" markerWidth="57" markerHeight="36" orient="auto"><circle stroke="gray" fill="white" cx="48" cy="18" r="6"/><path stroke="gray" fill="none" d="M0,18 Q18,0 36,18 Q18,36 0,18"/></marker></defs><defs><marker id="ZERO_OR_MORE_END" refX="39" refY="18" markerWidth="57" markerHeight="36" orient="auto"><circle stroke="gray" fill="white" cx="9" cy="18" r="6"/><path stroke="gray" fill="none" d="M21,18 Q39,0 57,18 Q39,36 21,18"/></marker></defs><path class="er relationshipLine" d="M101.681,110L101.681,118.333C101.681,126.667,101.681,143.333,101.681,160C101.681,176.667,101.681,193.333,101.681,201.667L101.681,210" marker-end="url(#ZERO_OR_MORE_END)" marker-start="url(#ONLY_ONE_START)" style="stroke: gray; fill: none;"/><path class="er relationshipLine" d="M101.681,344L101.681,352.333C101.681,360.667,101.681,377.333,101.681,394C101.681,410.667,101.681,427.333,101.681,435.667L101.681,444" marker-end="url(#ZERO_OR_ONE_END)" marker-start="url(#ONLY_ONE_START)" style="stroke: gray; fill: none;"/><g id="entity-USER-6e7e2962-0c6f-577d-a7fd-2ce3a0cfd2c8" transform="translate(37.75904846191406,20 )"><rect class="er entityBox" x="0" y="0" width="127.84323120117188" height="90"/><text class="er entityLabel" id="text-entity-USER-6e7e2962-0c6f-577d-a7fd-2ce3a0cfd2c8" x="0" y="0" transform="translate(63.92161560058594,12)" style="dominant-baseline: middle; text-anchor: middle; font-size: 12px;">USER</text><rect class="er attributeBoxOdd" x="0" y="24" width="44.2640380859375" height="22"/><text class="er entityLabel" id="text-entity-USER-6e7e2962-0c6f-577d-a7fd-2ce3a0cfd2c8-attr-1-type" x="0" y="0" transform="translate(5,35)" style="dominant-baseline: middle; font-size: 10.2px;">int</text><rect class="er attributeBoxOdd" x="44.2640380859375" y="24" width="61.898468017578125" height="22"/><text class="er entityLabel" id="text-entity-USER-6e7e2962-0c6f-577d-a7fd-2ce3a0cfd2c8-attr-1-name" x="0" y="0" transform="translate(49.2640380859375,35)" style="dominant-baseline: middle; font-size: 10.2px;">User_ID</text><rect class="er attributeBoxOdd" x="106.16250610351562" y="24" width="21.68072509765625" height="22"/><text class="er entityLabel" id="text-entity-USER-6e7e2962-0c6f-577d-a7fd-2ce3a0cfd2c8-attr-1-key" x="0" y="0" transform="translate(111.16250610351562,35)" style="dominant-baseline: middle; font-size: 10.2px;">PK</text><rect class="er attributeBoxEven" x="0" y="46" width="44.2640380859375" height="22"/><text class="er entityLabel" id="text-entity-USER-6e7e2962-0c6f-577d-a7fd-2ce3a0cfd2c8-attr-2-type" x="0" y="0" transform="translate(5,57)" style="dominant-baseline: middle; font-size: 10.2px;">varchar</text><rect class="er attributeBoxEven" x="44.2640380859375" y="46" width="61.898468017578125" height="22"/><text class="er entityLabel" id="text-entity-USER-6e7e2962-0c6f-577d-a7fd-2ce3a0cfd2c8-attr-2-name" x="0" y="0" transform="translate(49.2640380859375,57)" style="dominant-baseline: middle; font-size: 10.2px;">User_Name</text><rect class="er attributeBoxEven" x="106.16250610351562" y="46" width="21.68072509765625" height="22"/><text class="er entityLabel" id="text-entity-USER-6e7e2962-0c6f-577d-a7fd-2ce3a0cfd2c8-attr-2-key" x="0" y="0" transform="translate(111.16250610351562,57)" style="dominant-baseline: middle; font-size: 10.2px;"/><rect class="er attributeBoxOdd" x="0" y="68" width="44.2640380859375" height="22"/><text class="er entityLabel" id="text-entity-USER-6e7e2962-0c6f-577d-a7fd-2ce3a0cfd2c8-attr-3-type" x="0" y="0" transform="translate(5,79)" style="dominant-baseline: middle; font-size: 10.2px;">varchar</text><rect class="er attributeBoxOdd" x="44.2640380859375" y="68" width="61.898468017578125" height="22"/><text class="er entityLabel" id="text-entity-USER-6e7e2962-0c6f-577d-a7fd-2ce3a0cfd2c8-attr-3-name" x="0" y="0" transform="translate(49.2640380859375,79)" style="dominant-baseline: middle; font-size: 10.2px;">User_Email</text><rect class="er attributeBoxOdd" x="106.16250610351562" y="68" width="21.68072509765625" height="22"/><text class="er entityLabel" id="text-entity-USER-6e7e2962-0c6f-577d-a7fd-2ce3a0cfd2c8-attr-3-key" x="0" y="0" transform="translate(111.16250610351562,79)" style="dominant-baseline: middle; font-size: 10.2px;"/></g><g id="entity-BILL-d42160ff-e0e5-5656-aeb0-3960ccd5ed9f" transform="translate(31.309051513671875,210 )"><rect class="er entityBox" x="0" y="0" width="140.74322509765625" height="134"/><text class="er entityLabel" id="text-entity-BILL-d42160ff-e0e5-5656-aeb0-3960ccd5ed9f" x="0" y="0" transform="translate(70.37161254882812,12)" style="dominant-baseline: middle; text-anchor: middle; font-size: 12px;">BILL</text><rect class="er attributeBoxOdd" x="0" y="24" width="46.09375" height="22"/><text class="er entityLabel" id="text-entity-BILL-d42160ff-e0e5-5656-aeb0-3960ccd5ed9f-attr-1-type" x="0" y="0" transform="translate(5,35)" style="dominant-baseline: middle; font-size: 10.2px;">int</text><rect class="er attributeBoxOdd" x="46.09375" y="24" width="72.96875" height="22"/><text class="er entityLabel" id="text-entity-BILL-d42160ff-e0e5-5656-aeb0-3960ccd5ed9f-attr-1-name" x="0" y="0" transform="translate(51.09375,35)" style="dominant-baseline: middle; font-size: 10.2px;">Bill_ID</text><rect class="er attributeBoxOdd" x="119.0625" y="24" width="21.68072509765625" height="22"/><text class="er entityLabel" id="text-entity-BILL-d42160ff-e0e5-5656-aeb0-3960ccd5ed9f-attr-1-key" x="0" y="0" transform="translate(124.0625,35)" style="dominant-baseline: middle; font-size: 10.2px;">PK</text><rect class="er attributeBoxEven" x="0" y="46" width="46.09375" height="22"/><text class="er entityLabel" id="text-entity-BILL-d42160ff-e0e5-5656-aeb0-3960ccd5ed9f-attr-2-type" x="0" y="0" transform="translate(5,57)" style="dominant-baseline: middle; font-size: 10.2px;">int</text><rect class="er attributeBoxEven" x="46.09375" y="46" width="72.96875" height="22"/><text class="er entityLabel" id="text-entity-BILL-d42160ff-e0e5-5656-aeb0-3960ccd5ed9f-attr-2-name" x="0" y="0" transform="translate(51.09375,57)" style="dominant-baseline: middle; font-size: 10.2px;">User_ID</text><rect class="er attributeBoxEven" x="119.0625" y="46" width="21.68072509765625" height="22"/><text class="er entityLabel" id="text-entity-BILL-d42160ff-e0e5-5656-aeb0-3960ccd5ed9f-attr-2-key" x="0" y="0" transform="translate(124.0625,57)" style="dominant-baseline: middle; font-size: 10.2px;">FK</text><rect class="er attributeBoxOdd" x="0" y="68" width="46.09375" height="22"/><text class="er entityLabel" id="text-entity-BILL-d42160ff-e0e5-5656-aeb0-3960ccd5ed9f-attr-3-type" x="0" y="0" transform="translate(5,79)" style="dominant-baseline: middle; font-size: 10.2px;">decimal</text><rect class="er attributeBoxOdd" x="46.09375" y="68" width="72.96875" height="22"/><text class="er entityLabel" id="text-entity-BILL-d42160ff-e0e5-5656-aeb0-3960ccd5ed9f-attr-3-name" x="0" y="0" transform="translate(51.09375,79)" style="dominant-baseline: middle; font-size: 10.2px;">Total_Amount</text><rect class="er attributeBoxOdd" x="119.0625" y="68" width="21.68072509765625" height="22"/><text class="er entityLabel" id="text-entity-BILL-d42160ff-e0e5-5656-aeb0-3960ccd5ed9f-attr-3-key" x="0" y="0" transform="translate(124.0625,79)" style="dominant-baseline: middle; font-size: 10.2px;"/><rect class="er attributeBoxEven" x="0" y="90" width="46.09375" height="22"/><text class="er entityLabel" id="text-entity-BILL-d42160ff-e0e5-5656-aeb0-3960ccd5ed9f-attr-4-type" x="0" y="0" transform="translate(5,101)" style="dominant-baseline: middle; font-size: 10.2px;">varchar</text><rect class="er attributeBoxEven" x="46.09375" y="90" width="72.96875" height="22"/><text class="er entityLabel" id="text-entity-BILL-d42160ff-e0e5-5656-aeb0-3960ccd5ed9f-attr-4-name" x="0" y="0" transform="translate(51.09375,101)" style="dominant-baseline: middle; font-size: 10.2px;">Billing_Period</text><rect class="er attributeBoxEven" x="119.0625" y="90" width="21.68072509765625" height="22"/><text class="er entityLabel" id="text-entity-BILL-d42160ff-e0e5-5656-aeb0-3960ccd5ed9f-attr-4-key" x="0" y="0" transform="translate(124.0625,101)" style="dominant-baseline: middle; font-size: 10.2px;"/><rect class="er attributeBoxOdd" x="0" y="112" width="46.09375" height="22"/><text class="er entityLabel" id="text-entity-BILL-d42160ff-e0e5-5656-aeb0-3960ccd5ed9f-attr-5-type" x="0" y="0" transform="translate(5,123)" style="dominant-baseline: middle; font-size: 10.2px;">boolean</text><rect class="er attributeBoxOdd" x="46.09375" y="112" width="72.96875" height="22"/><text class="er entityLabel" id="text-entity-BILL-d42160ff-e0e5-5656-aeb0-3960ccd5ed9f-attr-5-name" x="0" y="0" transform="translate(51.09375,123)" style="dominant-baseline: middle; font-size: 10.2px;">Is_Paid</text><rect class="er attributeBoxOdd" x="119.0625" y="112" width="21.68072509765625" height="22"/><text class="er entityLabel" id="text-entity-BILL-d42160ff-e0e5-5656-aeb0-3960ccd5ed9f-attr-5-key" x="0" y="0" transform="translate(124.0625,123)" style="dominant-baseline: middle; font-size: 10.2px;"/></g><g id="entity-PAYMENT-9797eee8-7a01-5efe-aaa5-fb9a4f14957c" transform="translate(20,444 )"><rect class="er entityBox" x="0" y="0" width="163.361328125" height="134"/><text class="er entityLabel" id="text-entity-PAYMENT-9797eee8-7a01-5efe-aaa5-fb9a4f14957c" x="0" y="0" transform="translate(81.6806640625,12)" style="dominant-baseline: middle; text-anchor: middle; font-size: 12px;">PAYMENT</text><rect class="er attributeBoxOdd" x="0" y="24" width="52.02435302734375" height="22"/><text class="er entityLabel" id="text-entity-PAYMENT-9797eee8-7a01-5efe-aaa5-fb9a4f14957c-attr-1-type" x="0" y="0" transform="translate(5,35)" style="dominant-baseline: middle; font-size: 10.2px;">int</text><rect class="er attributeBoxOdd" x="52.02435302734375" y="24" width="89.65625" height="22"/><text class="er entityLabel" id="text-entity-PAYMENT-9797eee8-7a01-5efe-aaa5-fb9a4f14957c-attr-1-name" x="0" y="0" transform="translate(57.02435302734375,35)" style="dominant-baseline: middle; font-size: 10.2px;">Payment_ID</text><rect class="er attributeBoxOdd" x="141.68060302734375" y="24" width="21.68072509765625" height="22"/><text class="er entityLabel" id="text-entity-PAYMENT-9797eee8-7a01-5efe-aaa5-fb9a4f14957c-attr-1-key" x="0" y="0" transform="translate(146.68060302734375,35)" style="dominant-baseline: middle; font-size: 10.2px;">PK</text><rect class="er attributeBoxEven" x="0" y="46" width="52.02435302734375" height="22"/><text class="er entityLabel" id="text-entity-PAYMENT-9797eee8-7a01-5efe-aaa5-fb9a4f14957c-attr-2-type" x="0" y="0" transform="translate(5,57)" style="dominant-baseline: middle; font-size: 10.2px;">int</text><rect class="er attributeBoxEven" x="52.02435302734375" y="46" width="89.65625" height="22"/><text class="er entityLabel" id="text-entity-PAYMENT-9797eee8-7a01-5efe-aaa5-fb9a4f14957c-attr-2-name" x="0" y="0" transform="translate(57.02435302734375,57)" style="dominant-baseline: middle; font-size: 10.2px;">Bill_ID</text><rect class="er attributeBoxEven" x="141.68060302734375" y="46" width="21.68072509765625" height="22"/><text class="er entityLabel" id="text-entity-PAYMENT-9797eee8-7a01-5efe-aaa5-fb9a4f14957c-attr-2-key" x="0" y="0" transform="translate(146.68060302734375,57)" style="dominant-baseline: middle; font-size: 10.2px;">FK</text><rect class="er attributeBoxOdd" x="0" y="68" width="52.02435302734375" height="22"/><text class="er entityLabel" id="text-entity-PAYMENT-9797eee8-7a01-5efe-aaa5-fb9a4f14957c-attr-3-type" x="0" y="0" transform="translate(5,79)" style="dominant-baseline: middle; font-size: 10.2px;">datetime</text><rect class="er attributeBoxOdd" x="52.02435302734375" y="68" width="89.65625" height="22"/><text class="er entityLabel" id="text-entity-PAYMENT-9797eee8-7a01-5efe-aaa5-fb9a4f14957c-attr-3-name" x="0" y="0" transform="translate(57.02435302734375,79)" style="dominant-baseline: middle; font-size: 10.2px;">Payment_Date</text><rect class="er attributeBoxOdd" x="141.68060302734375" y="68" width="21.68072509765625" height="22"/><text class="er entityLabel" id="text-entity-PAYMENT-9797eee8-7a01-5efe-aaa5-fb9a4f14957c-attr-3-key" x="0" y="0" transform="translate(146.68060302734375,79)" style="dominant-baseline: middle; font-size: 10.2px;"/><rect class="er attributeBoxEven" x="0" y="90" width="52.02435302734375" height="22"/><text class="er entityLabel" id="text-entity-PAYMENT-9797eee8-7a01-5efe-aaa5-fb9a4f14957c-attr-4-type" x="0" y="0" transform="translate(5,101)" style="dominant-baseline: middle; font-size: 10.2px;">decimal</text><rect class="er attributeBoxEven" x="52.02435302734375" y="90" width="89.65625" height="22"/><text class="er entityLabel" id="text-entity-PAYMENT-9797eee8-7a01-5efe-aaa5-fb9a4f14957c-attr-4-name" x="0" y="0" transform="translate(57.02435302734375,101)" style="dominant-baseline: middle; font-size: 10.2px;">Payment_Amount</text><rect class="er attributeBoxEven" x="141.68060302734375" y="90" width="21.68072509765625" height="22"/><text class="er entityLabel" id="text-entity-PAYMENT-9797eee8-7a01-5efe-aaa5-fb9a4f14957c-attr-4-key" x="0" y="0" transform="translate(146.68060302734375,101)" style="dominant-baseline: middle; font-size: 10.2px;"/><rect class="er attributeBoxOdd" x="0" y="112" width="52.02435302734375" height="22"/><text class="er entityLabel" id="text-entity-PAYMENT-9797eee8-7a01-5efe-aaa5-fb9a4f14957c-attr-5-type" x="0" y="0" transform="translate(5,123)" style="dominant-baseline: middle; font-size: 10.2px;">varchar</text><rect class="er attributeBoxOdd" x="52.02435302734375" y="112" width="89.65625" height="22"/><text class="er entityLabel" id="text-entity-PAYMENT-9797eee8-7a01-5efe-aaa5-fb9a4f14957c-attr-5-name" x="0" y="0" transform="translate(57.02435302734375,123)" style="dominant-baseline: middle; font-size: 10.2px;">Payment_Method</text><rect class="er attributeBoxOdd" x="141.68060302734375" y="112" width="21.68072509765625" height="22"/><text class="er entityLabel" id="text-entity-PAYMENT-9797eee8-7a01-5efe-aaa5-fb9a4f14957c-attr-5-key" x="0" y="0" transform="translate(146.68060302734375,123)" style="dominant-baseline: middle; font-size: 10.2px;"/></g><rect class="er relationshipLabelBox" x="79.41146850585938" y="153" width="44.5390625" height="14"/><text class="er relationshipLabel" id="rel1" x="101.68099975585938" y="160" style="text-anchor: middle; dominant-baseline: middle; font-size: 12px;">receives</text><rect class="er relationshipLabelBox" x="73.35678100585938" y="387" width="56.6484375" height="14"/><text class="er relationshipLabel" id="rel2" x="101.68099975585938" y="394" style="text-anchor: middle; dominant-baseline: middle; font-size: 12px;">is_paid_by</text></svg>